<svg width="114" height="35" viewBox="0 0 114 35" fill="none" xmlns="http://www.w3.org/2000/svg">
<g clip-path="url(#clip0_15_7)">
<path d="M0 27.8276L8.91401 4.21179H11.9742C13.0502 4.21179 13.886 4.45507 14.4799 4.93996C15.0739 5.42485 15.5954 6.25397 16.0446 7.42731L23.8151 27.6588C23.412 28.0642 22.9744 28.3522 22.5039 28.521C22.0333 28.6898 21.5167 28.7742 20.9573 28.7742C20.1495 28.7742 19.4832 28.5988 18.9567 28.2496C18.4302 27.9004 18.032 27.3427 17.7622 26.5748L16.5842 23.3262H7.33456L6.19111 26.54C5.65311 28.0295 4.4751 28.7725 2.65874 28.7725C1.58274 28.7725 0.695945 28.4564 0.00164526 27.8259L0 27.8276ZM11.9413 10.4707L8.94692 18.8612H14.9669L11.9396 10.4707H11.9413Z" fill="#ED1846"/>
<path d="M24.822 4.44839C25.0918 4.31268 25.4275 4.20677 25.8306 4.12733C26.2337 4.0479 26.6269 4.00818 27.0086 4.00818C28.0401 4.00818 28.8299 4.27297 29.3794 4.80254C29.9289 5.33212 30.2037 6.09338 30.2037 7.08634V28.367C29.9338 28.5027 29.5982 28.6086 29.1951 28.6881C28.792 28.7675 28.3988 28.8056 28.0171 28.8056C26.9855 28.8056 26.1958 28.5408 25.6463 28.0112C25.0968 27.4816 24.822 26.7204 24.822 25.7274V4.44839Z" fill="#ED1846"/>
<path d="M84.4413 11.6043C85.5058 12.3606 86.3251 13.4363 86.896 14.8347C87.4685 16.2332 87.7532 17.8682 87.7532 19.7399C87.7532 22.5599 87.1198 24.7924 85.8529 26.4391C84.5861 28.0857 82.8651 28.9082 80.6901 28.9082C79.4792 28.9082 78.441 28.6765 77.5789 28.2148C76.7151 27.7531 76.0488 27.0696 75.5783 26.1677V31.9185C75.5783 32.9115 75.315 33.6727 74.7885 34.2023C74.2621 34.7319 73.4937 34.9967 72.4852 34.9967C72.1035 34.9967 71.7119 34.957 71.3072 34.8792C70.9041 34.7997 70.5668 34.6938 70.2986 34.5581V11.1476C70.8811 10.8546 71.6099 10.7074 72.4852 10.7074C73.4723 10.7074 74.2341 10.9788 74.7721 11.5199C75.3101 12.0611 75.5799 12.8389 75.5799 13.855V13.9229C76.0274 12.7959 76.6839 11.9386 77.5476 11.3511C78.4114 10.7653 79.4594 10.4707 80.6917 10.4707C82.1264 10.4707 83.3768 10.848 84.4413 11.6043ZM81.4469 23.5132C82.0853 22.5996 82.4061 21.3303 82.4061 19.7068C82.4061 18.0834 82.0918 16.8422 81.465 15.9171C80.8365 14.992 79.9728 14.5302 78.8754 14.5302C77.9343 14.5302 77.1478 14.8513 76.521 15.4951C75.8925 16.1372 75.5799 16.9332 75.5799 17.8798V21.8715C75.5799 22.684 75.8991 23.389 76.5391 23.9865C77.1775 24.5839 77.9343 24.8834 78.8096 24.8834C79.93 24.8834 80.8102 24.4267 81.4502 23.5132H81.4469Z" fill="#183153"/>
<path d="M90.6126 22.4143C90.815 23.2715 91.33 23.9434 92.1592 24.4267C92.9884 24.9116 93.9525 25.1548 95.0515 25.1548C96.8005 25.1548 97.6757 24.5458 97.6757 23.3278C97.6757 22.7188 97.4684 22.3067 97.0538 22.0932C96.6392 21.8797 96.1506 21.7325 95.5912 21.653C95.0302 21.5736 94.6501 21.5123 94.4477 21.4677C92.8551 21.2194 91.4928 20.7296 90.3609 19.9964C89.229 19.2633 88.663 18.0056 88.663 16.2249C88.663 14.4442 89.3409 13.0673 90.6982 12.0296C92.0539 10.992 93.9097 10.474 96.2641 10.474C98.0574 10.474 99.4987 10.7851 100.586 11.4041C101.674 12.0247 102.218 12.8422 102.218 13.8567C102.218 14.33 102.055 14.7702 101.731 15.1756C101.406 15.5811 100.951 15.9204 100.369 16.1901C99.9429 15.4917 99.349 14.9671 98.5872 14.6163C97.8255 14.2671 96.9502 14.0917 95.963 14.0917C95.2671 14.0917 94.7291 14.2274 94.349 14.4971C93.9673 14.7685 93.7765 15.174 93.7765 15.7151C93.7765 16.2563 94.0233 16.6071 94.5168 16.8322C95.0104 17.0573 95.7952 17.2608 96.8712 17.4412C98.1035 17.6663 99.1252 17.9212 99.9314 18.2025C100.739 18.4855 101.434 18.9969 102.016 19.7416C102.598 20.4863 102.891 21.5339 102.891 22.8876C102.891 24.7825 102.179 26.2603 100.756 27.3195C99.3309 28.3803 97.4421 28.9099 95.0877 28.9099C93.0246 28.9099 91.427 28.5541 90.2951 27.8441C89.1632 27.1341 88.5972 26.2156 88.5972 25.087C88.5972 23.9583 89.2701 23.0465 90.6159 22.4143H90.6126Z" fill="#183153"/>
<path d="M53.5598 24.5144C54.2244 25.1829 54.8315 25.8002 55.4502 26.4043C55.5193 26.4721 55.6608 26.4887 55.7693 26.4887C57.0757 26.4936 58.3837 26.4986 59.69 26.4837C59.8266 26.4837 60.001 26.3844 60.0898 26.2735C60.8417 25.3402 62.1266 25.2227 63.0101 26.0203C63.8377 26.7684 63.8574 28.1155 63.0529 28.9131C62.2303 29.7307 60.9223 29.6744 60.1671 28.7692C59.9993 28.5673 59.8348 28.4911 59.5798 28.4944C58.1056 28.5044 56.6298 28.4878 55.1557 28.5077C54.8266 28.5127 54.6061 28.4034 54.3824 28.175C53.257 27.0249 52.1136 25.8913 50.9882 24.7427C50.8007 24.5524 50.6082 24.4763 50.3449 24.4647C46.5032 24.3075 43.4858 20.8504 43.8083 16.9861C44.0831 13.6911 46.4325 11.0681 49.6556 10.5948C50.7595 10.4326 51.8997 10.5071 53.0251 10.4938C53.2916 10.4905 53.4791 10.4177 53.6667 10.2257C54.7921 9.07556 55.9372 7.94525 57.0609 6.79177C57.2797 6.5667 57.4985 6.48892 57.8045 6.49057C59.3955 6.50547 60.9881 6.49057 62.5791 6.50216C62.8209 6.50216 62.9739 6.43596 63.1302 6.24068C63.688 5.54064 64.5452 5.31888 65.3596 5.63332C66.1394 5.93452 66.6708 6.72557 66.6429 7.54476C66.6116 8.4169 66.0374 9.17982 65.1917 9.40655C64.3658 9.62831 63.6699 9.38503 63.0973 8.74292C62.9871 8.62046 62.788 8.51454 62.6268 8.51289C61.2431 8.49468 59.8578 8.49468 58.4742 8.51289C58.3047 8.51454 58.099 8.60391 57.9723 8.72141C57.3899 9.26588 56.8289 9.83517 56.2613 10.3945C56.2777 10.4243 56.2925 10.4541 56.309 10.4839C57.1563 10.4839 58.0053 10.4938 58.8526 10.4723C58.9579 10.469 59.073 10.3184 59.1619 10.2175C59.7278 9.55715 60.5784 9.32546 61.3731 9.625C62.153 9.91792 62.6893 10.709 62.6646 11.5298C62.6383 12.3987 62.0888 13.1351 61.2694 13.3982C60.4912 13.6481 59.6867 13.4115 59.1487 12.7429C59.0006 12.5592 58.8542 12.4996 58.6272 12.4996C56.0013 12.5062 53.3739 12.4963 50.748 12.5062C47.9149 12.5162 45.7267 14.7718 45.7678 17.6216C45.8057 20.238 47.9708 22.4407 50.6148 22.4904C52.645 22.5301 54.6769 22.5053 56.7088 22.4904C56.8552 22.4904 57.0362 22.3679 57.1382 22.2488C57.7371 21.5504 58.5877 21.3104 59.4087 21.6364C60.2198 21.9575 60.7249 22.7568 60.6722 23.6339C60.6196 24.4879 60.0075 25.2309 59.1421 25.4295C58.3573 25.6099 57.6795 25.3815 57.1678 24.7477C57.0132 24.5557 56.8618 24.4746 56.6167 24.4779C55.7364 24.4912 54.8579 24.4829 53.9777 24.4846C53.8674 24.4846 53.7572 24.4995 53.5647 24.5144H53.5598Z" fill="#183153"/>
<path d="M62.9937 19.4933C63.66 20.1603 64.2967 20.8057 64.9482 21.4362C65.0206 21.5057 65.1753 21.5256 65.2855 21.5107C66.3533 21.3617 67.3092 22.0502 67.528 23.1391C67.7337 24.1668 67.0772 25.173 66.0292 25.4378C65.0338 25.6894 63.994 25.087 63.6896 24.0708C63.6353 23.8871 63.5777 23.6753 63.6172 23.4982C63.7127 23.0647 63.5136 22.8015 63.2257 22.5268C62.6153 21.9443 62.0246 21.3419 61.4422 20.7329C61.2662 20.5492 61.0868 20.478 60.8334 20.478C57.7667 20.4863 53.7687 20.4896 50.7019 20.478C49.3627 20.473 48.2061 19.5678 47.8655 18.2968C47.3357 16.3275 48.7572 14.5103 50.8632 14.4888C52.3373 14.4739 53.8131 14.4822 55.2873 14.4888C55.5209 14.4888 55.6789 14.4375 55.8384 14.234C56.541 13.342 57.8638 13.2543 58.6995 14.0155C59.5255 14.7669 59.5633 16.0726 58.7835 16.8785C57.9773 17.711 56.6956 17.7126 55.9289 16.8388C55.6887 16.5658 55.4551 16.4797 55.1096 16.483C53.6601 16.5012 52.2123 16.4863 50.7628 16.4929C50.2627 16.4963 49.9204 16.7677 49.7855 17.2261C49.6654 17.6382 49.8086 18.0883 50.1903 18.3067C50.3926 18.4226 50.6526 18.4888 50.8879 18.4904C53.9283 18.502 57.9016 18.502 60.942 18.4904C61.0983 18.4904 61.2859 18.3878 61.4027 18.2736C62.0542 17.6415 62.6794 16.9811 63.3359 16.3539C63.5629 16.1371 63.6485 15.927 63.6205 15.6109C63.5498 14.7751 63.9167 14.1363 64.6373 13.7458C65.3563 13.3552 66.0835 13.4049 66.7547 13.8914C67.4967 14.4276 67.7649 15.4057 67.4161 16.2563C67.0706 17.1036 66.2003 17.5935 65.2888 17.4677C65.1786 17.4528 65.0223 17.4826 64.9482 17.5538C64.2967 18.1843 63.6584 18.8297 62.9937 19.4933Z" fill="#183153"/>
<path d="M50.0471 24.9662C48.5187 24.8553 47.1087 24.281 46.0475 23.447C43.4891 21.4379 42.4724 18.1115 43.5237 15.0681C44.1801 13.1666 45.4108 11.74 47.191 10.8199C48.1172 10.34 49.0698 10.0768 50.0488 10.0123V0C49.6177 0 49.1867 0.00165492 48.7556 0.00496477C48.2324 0.00827462 47.9001 0.304506 47.8507 0.822497C47.7684 1.6632 47.6993 2.50556 47.6368 3.34791C47.5611 4.35907 47.5513 4.31935 46.6299 4.66358C45.5589 5.06241 44.5174 5.54234 43.4118 6.00903C43.4184 6.014 43.3493 5.95773 43.2802 5.89981C42.4641 5.19812 41.6547 4.48981 40.8304 3.79805C40.3895 3.429 39.9716 3.44224 39.5833 3.82619C38.708 4.69337 37.8393 5.56717 36.9772 6.44924C36.6185 6.81663 36.6103 7.22871 36.9229 7.6441C37.0233 7.77814 37.1384 7.90392 37.247 8.033C37.9084 8.81247 38.5714 9.59029 39.2115 10.3449C38.9005 10.9705 38.5747 11.5481 38.3197 12.1554C38.0647 12.7628 37.8459 13.39 37.6797 14.0271C37.5859 14.3879 37.4083 14.4938 37.0759 14.5153C36.0838 14.5799 35.0901 14.6527 34.0996 14.7437C33.4514 14.8033 33.1898 15.1111 33.1882 15.7615C33.1865 16.7892 33.2178 17.8186 33.1799 18.8446C33.1339 20.1239 33.5666 20.2397 34.5702 20.2993C34.6343 20.3026 34.7002 20.2993 34.7643 20.3043C35.5886 20.3672 36.4145 20.4234 37.2371 20.5045C37.3638 20.5161 37.5646 20.6171 37.5876 20.713C37.9331 22.0966 38.4925 23.3857 39.2296 24.6087C39.1637 24.6898 39.1094 24.761 39.0519 24.8288C38.3543 25.6497 37.6501 26.4639 36.9624 27.293C36.5938 27.7365 36.6004 28.1585 36.9805 28.5474C37.8426 29.4279 38.7113 30.3017 39.5866 31.1688C39.9535 31.5313 40.3648 31.5528 40.7728 31.235C41.1002 30.9802 41.4062 30.7005 41.7205 30.4308C42.3177 29.9194 42.9133 29.4064 43.5023 28.9016C44.6573 29.6116 45.8369 30.166 47.1153 30.4672C47.497 30.5565 47.594 30.7502 47.6154 31.1043C47.6747 32.1039 47.752 33.1018 47.8408 34.0981C47.8951 34.7005 48.211 34.9851 48.8 34.9868C49.2146 34.9868 49.6292 34.9868 50.0455 34.9868V24.9695L50.0471 24.9662Z" fill="#183153"/>
<path d="M57.3438 0.96814C56.6265 0.96814 56.0013 1.35539 55.6558 1.93131H51.2794C51.003 1.93131 50.7793 2.15638 50.7793 2.4344V10.992H52.8013V4.34088C52.8013 4.13401 52.9675 3.96686 53.1731 3.96686H55.6558C55.9997 4.54278 56.6265 4.93003 57.3438 4.93003C58.4314 4.93003 59.3132 4.04299 59.3132 2.94908C59.3132 1.85518 58.4314 0.96814 57.3438 0.96814Z" fill="#183153"/>
<path d="M57.1481 33.9061C56.4307 33.9061 55.8055 33.5188 55.46 32.9429H51.0836C50.8072 32.9429 50.5835 32.7178 50.5835 32.4398V23.8822H52.6055V30.535C52.6055 30.7419 52.7717 30.909 52.9773 30.909H55.46C55.8039 30.3331 56.4307 29.9458 57.1481 29.9458C58.2356 29.9458 59.1174 30.8329 59.1174 31.9268C59.1174 33.0207 58.2356 33.9077 57.1481 33.9077V33.9061Z" fill="#183153"/>
<path d="M89.4774 2.3219C87.8651 2.3219 86.6936 3.48531 86.6936 5.09059C86.6936 6.69586 87.8634 7.85928 89.4774 7.85928C91.0914 7.85928 92.2612 6.69586 92.2612 5.09059C92.2612 3.48531 91.0914 2.3219 89.4774 2.3219ZM89.4774 6.61974C88.6614 6.61974 88.1135 6.00576 88.1135 5.09059C88.1135 4.17541 88.6614 3.56144 89.4774 3.56144C90.2935 3.56144 90.8413 4.17541 90.8413 5.09059C90.8413 6.00576 90.2935 6.61974 89.4774 6.61974Z" fill="#ED1846"/>
<path d="M84.4215 5.12033C84.3837 5.11206 84.3804 5.0591 84.4182 5.04917C84.7012 4.97304 84.9464 4.79266 85.1356 4.55766L86.8828 2.4046H85.2688L83.3159 4.81417V0.160522H81.8977V7.77317H83.3159V5.31065L84.9974 7.28828C85.2853 7.62423 85.5963 7.77317 86.0503 7.77317H87.0786L85.1635 5.5473C84.9678 5.32058 84.7062 5.17825 84.4199 5.11868L84.4215 5.12033Z" fill="#ED1846"/>
<path d="M99.191 2.3219C98.3306 2.3219 97.7662 2.78693 97.4832 3.25197C97.2134 2.64295 96.6705 2.3219 95.8643 2.3219C95.193 2.3219 94.7011 2.61979 94.5103 3.04179C94.4823 3.10302 94.4346 3.11792 94.4132 3.02855C94.3276 2.65619 93.9904 2.4063 93.6152 2.4063H93.018V7.77488H94.4362V5.04922C94.4362 4.11915 94.8179 3.54158 95.4793 3.54158C96.042 3.54158 96.3447 3.89739 96.3447 4.51633V7.77653H97.7629V5.03929C97.7629 4.11584 98.1397 3.54158 98.7962 3.54158C99.3638 3.54158 99.683 3.90566 99.683 4.51633V7.77653H101.101V4.15059C101.101 3.07489 100.323 2.32355 99.1927 2.32355L99.191 2.3219Z" fill="#ED1846"/>
<path d="M80.8842 0.98633C80.8842 0.531226 80.5173 0.160522 80.0632 0.160522H79.466V6.79015C79.466 7.54976 79.9448 7.85758 80.4795 7.85758C80.7065 7.85758 80.9385 7.80462 81.1425 7.71029C80.9286 7.39089 80.8842 6.93909 80.8842 6.53529V0.98633Z" fill="#ED1846"/>
<path d="M72.6777 1.83039C72.6777 1.03272 72.0163 0.408813 71.2595 0.408813H69.9202C69.4678 0.408813 69.0992 0.777862 69.0992 1.23462V1.88666H71.2282V6.7902C71.2282 7.54981 71.7218 7.85763 72.2565 7.85763C72.4835 7.85763 72.732 7.80467 72.936 7.71034C72.7221 7.39094 72.6777 6.93915 72.6777 6.53534V1.83039Z" fill="#ED1846"/>
<path d="M74.8066 1.56719V0.4104H72.2302C72.1923 0.4104 72.1792 0.461703 72.2121 0.479907C72.6069 0.700012 72.857 1.10547 72.9343 1.57216C72.9672 1.76909 73.1055 1.8899 73.3062 1.8899H74.4875C74.6652 1.8899 74.8083 1.74592 74.8083 1.56719H74.8066Z" fill="#ED1846"/>
<path d="M104.224 4.49482C103.52 4.30781 103.266 4.1539 103.266 3.91394C103.266 3.59785 103.526 3.4158 104.069 3.4158C104.68 3.4158 105.3 3.62763 105.678 3.90566V2.74391C105.28 2.48408 104.642 2.3219 104.02 2.3219C102.712 2.3219 101.906 3.012 101.906 3.96193C101.906 4.91186 102.712 5.32062 103.574 5.56059C104.291 5.77242 104.647 5.88992 104.647 6.20932C104.647 6.5552 104.369 6.75544 103.768 6.75544C102.993 6.75544 102.381 6.44763 101.945 6.06534V7.32143C102.421 7.65738 103.079 7.85928 103.826 7.85928C105.203 7.85928 106.007 7.19731 106.007 6.17953C106.007 5.08562 105.076 4.71492 104.224 4.49482Z" fill="#ED1846"/>
<path d="M76.2364 2.3219C74.782 2.3219 73.5892 3.41911 73.5892 5.1121C73.5892 6.80509 74.6652 7.85762 76.4684 7.85762C77.1462 7.85762 77.7763 7.67558 78.3193 7.33798V6.11995C77.7961 6.48569 77.2137 6.69752 76.623 6.69752C75.7412 6.69752 75.1341 6.32351 74.9498 5.4977H78.65C78.6697 5.33221 78.6895 5.15513 78.6895 4.99626C78.6895 3.24535 77.5625 2.3219 76.2347 2.3219H76.2364ZM74.9991 4.51633C75.1094 3.85601 75.6062 3.38933 76.2265 3.38933C76.8139 3.38933 77.2614 3.77823 77.3223 4.51633H74.9991Z" fill="#ED1846"/>
<path d="M109.094 2.3219C107.639 2.3219 106.447 3.41911 106.447 5.1121C106.447 6.80509 107.523 7.85762 109.326 7.85762C110.004 7.85762 110.634 7.67558 111.177 7.33798V6.11995C110.654 6.48569 110.071 6.69752 109.48 6.69752C108.599 6.69752 107.992 6.32351 107.807 5.4977H111.507C111.527 5.33221 111.547 5.15513 111.547 4.99626C111.547 3.24535 110.42 2.3219 109.092 2.3219H109.094ZM107.857 4.51633C107.967 3.85601 108.464 3.38933 109.084 3.38933C109.671 3.38933 110.119 3.77823 110.18 4.51633H107.857Z" fill="#ED1846"/>
<path d="M113.742 6.53529V0.98633C113.742 0.531226 113.375 0.160522 112.921 0.160522H112.323V6.79015C112.323 7.54976 112.802 7.85758 113.337 7.85758C113.564 7.85758 113.796 7.80462 114 7.71029C113.786 7.39089 113.742 6.93909 113.742 6.53529Z" fill="#ED1846"/>
</g>
<defs>
<clipPath id="clip0_15_7">
<rect width="114" height="35" fill="white"/>
</clipPath>
</defs>
</svg>
